<?xml version="1.0" standalone="no"?>
<!DOCTYPE svg PUBLIC "-//W3C//DTD SVG 20010904//EN"
 "http://www.w3.org/TR/2001/REC-SVG-20010904/DTD/svg10.dtd">
<svg version="1.0" xmlns="http://www.w3.org/2000/svg"
 width="1747.000000pt" height="2019.000000pt" viewBox="0 0 1747.000000 2019.000000"
 preserveAspectRatio="xMidYMid meet">

<g transform="translate(0.000000,2019.000000) scale(0.100000,-0.100000)"
fill="#000000" stroke="none">
<path d="M3660 19335 l0 -765 603 -2 602 -3 0 -2495 0 -2495 -890 0 -890 0 0
1435 0 1435 593 3 592 2 0 760 0 760 -2085 0 c-1147 0 -2088 0 -2092 0 -5 0
-8 -343 -8 -762 l0 -763 603 -3 602 -2 0 -3705 0 -3705 -605 0 -605 0 0 -765
0 -765 2095 0 2095 0 0 765 0 765 -595 0 -595 0 0 1515 0 1515 3880 0 3880 0
0 -2580 0 -2580 -600 0 -600 0 2 -762 3 -763 2090 0 2090 0 3 762 2 763 -592
2 -593 3 -3 5833 -2 5832 595 0 595 0 0 765 0 765 -2095 0 -2095 0 0 -765 0
-765 600 0 600 0 0 -2500 0 -2500 -2087 2 -2088 3 -3 2498 -2 2497 595 0 595
0 0 765 0 765 -2095 0 -2095 0 0 -765z"/>
<path d="M15307 17972 l-2087 -2 2 -763 3 -762 600 -5 600 -5 0 -1430 0 -1430
-613 -3 -612 -2 2 -753 3 -752 610 -5 610 -5 0 -1510 0 -1510 -602 -3 -603 -2
0 -765 0 -765 2095 0 2095 0 0 765 0 765 -597 2 -598 3 0 2745 c0 1510 1 3176
3 3702 l2 958 593 2 592 3 3 759 c1 418 -1 762 -5 765 -5 3 -947 5 -2096 3z"/>
<path d="M8469 11745 c-629 -68 -1008 -310 -1148 -730 -62 -188 -62 -179 -59
-1570 3 -1151 5 -1268 21 -1348 58 -290 145 -465 308 -623 215 -207 554 -326
1007 -350 l122 -7 0 371 0 372 -28 0 c-43 0 -140 28 -208 59 -78 37 -129 88
-168 170 l-31 66 -3 453 -3 454 25 42 c53 90 155 151 306 183 65 14 130 18
280 18 182 0 199 -2 254 -24 69 -28 129 -78 159 -135 22 -40 22 -47 22 -511 0
-467 0 -470 -23 -527 -58 -143 -181 -226 -364 -246 l-63 -7 -3 -367 -2 -368
52 0 c168 0 474 55 651 117 459 159 716 488 768 981 17 168 6 1027 -14 1113
-97 404 -345 599 -844 664 -151 20 -458 20 -583 0 -195 -31 -382 -104 -538
-210 l-83 -56 3 503 3 503 29 58 c59 116 170 184 346 214 l100 18 0 367 0 368
-87 -1 c-49 -1 -140 -7 -204 -14z"/>
<path d="M8920 11387 l0 -373 68 -10 c139 -22 247 -96 293 -199 26 -59 38
-162 39 -328 l0 -137 503 2 502 3 -1 210 c-1 147 -7 238 -18 305 -62 346 -231
586 -515 729 -189 96 -543 171 -802 171 l-69 0 0 -373z"/>
<path d="M4868 9198 l-3 -2293 -603 -3 -602 -2 2 -763 3 -762 2090 0 2090 0 3
763 2 762 -595 0 -595 0 -2 2293 -3 2292 -892 3 -893 2 -2 -2292z"/>
<path d="M5855 4819 c-178 -86 -487 -616 -750 -1284 -163 -413 -291 -923 -311
-1239 -7 -102 -8 -106 -30 -106 -12 0 -42 -16 -66 -35 -123 -100 -172 -132
-263 -176 -123 -58 -178 -70 -324 -70 -92 0 -285 24 -300 37 -1 1 7 32 19 68
16 50 40 88 102 162 407 493 741 1070 848 1464 60 219 6 358 -142 368 -111 8
-195 -56 -341 -261 -179 -250 -448 -825 -676 -1448 -41 -111 -44 -116 -72
-116 -37 0 -59 -21 -116 -108 -62 -94 -175 -203 -247 -238 -101 -50 -233 -55
-314 -13 -47 25 -99 93 -132 175 -108 266 -174 341 -303 341 -79 0 -142 -36
-233 -133 -43 -45 -74 -73 -70 -62 4 11 26 67 48 125 50 131 49 177 -5 227
-37 33 -90 49 -131 39 -46 -11 -82 -53 -121 -143 -57 -128 -114 -216 -134
-207 -9 4 -31 9 -49 12 -30 4 -39 -3 -115 -79 -106 -108 -207 -190 -343 -279
-240 -157 -462 -235 -568 -200 -30 10 -36 16 -36 40 0 39 38 141 119 323 93
208 113 264 110 313 -3 38 1 45 52 95 30 30 67 73 83 97 79 115 15 262 -113
262 -86 0 -146 -50 -162 -134 -5 -25 -20 -70 -34 -99 -14 -30 -25 -63 -25 -75
0 -11 -11 -29 -24 -39 -25 -19 -216 -255 -235 -291 -16 -29 -14 -78 5 -118 15
-32 15 -37 -10 -111 -69 -210 -54 -352 47 -438 80 -69 247 -95 381 -60 232 61
572 272 865 538 75 68 101 87 101 73 0 -3 -20 -69 -45 -147 -60 -190 -59 -216
9 -258 74 -46 107 -28 267 147 57 63 133 139 169 169 68 59 168 129 173 122 2
-2 27 -49 56 -104 93 -176 163 -252 284 -311 194 -93 424 -61 625 88 28 21 52
36 52 34 0 -3 -24 -87 -54 -188 -152 -515 -278 -1092 -280 -1280 -1 -94 0 -97
28 -127 112 -117 233 -28 391 289 196 392 346 892 349 1163 l1 107 45 -7 c78
-12 281 -7 373 11 156 30 292 87 428 181 l77 52 12 -90 c38 -275 122 -437 266
-508 60 -30 68 -31 158 -27 89 4 100 7 188 50 168 84 322 228 510 477 l78 104
0 -89 c0 -108 17 -151 82 -210 116 -107 281 -75 465 91 l69 63 44 -50 c30 -35
64 -60 109 -82 60 -28 76 -31 186 -34 102 -3 134 0 216 21 173 45 309 108 453
212 l73 52 10 -83 c26 -209 178 -382 371 -423 76 -16 230 -14 320 5 106 21
239 68 351 122 157 76 428 268 582 412 35 33 65 57 67 55 3 -2 -16 -71 -42
-152 -61 -195 -60 -220 8 -262 74 -46 107 -28 267 147 57 63 133 139 169 169
68 59 168 129 173 122 2 -2 27 -49 56 -104 29 -55 69 -121 88 -147 167 -229
481 -282 747 -126 78 46 204 161 267 246 52 68 78 96 86 89 3 -3 -7 -45 -21
-94 -44 -151 -68 -292 -68 -393 -1 -82 3 -103 26 -153 93 -205 310 -251 573
-123 226 111 492 363 690 653 31 46 58 81 60 80 2 -2 -8 -36 -22 -76 -72 -212
-49 -370 65 -451 79 -56 243 -76 364 -45 189 49 464 207 716 410 l75 60 0 -80
c0 -65 5 -91 27 -136 41 -89 122 -139 225 -139 121 1 241 76 414 260 l113 120
22 -64 c25 -75 46 -107 106 -163 135 -124 295 -152 501 -87 151 48 278 127
404 252 40 40 74 68 76 64 3 -4 8 -33 11 -64 11 -89 52 -231 86 -299 43 -83
101 -143 176 -180 60 -30 68 -31 158 -27 89 4 100 7 188 50 171 86 325 231
517 488 47 63 89 117 94 118 15 7 37 62 37 95 0 43 -30 82 -74 97 -59 19 -104
-5 -144 -79 -40 -74 -153 -221 -241 -313 -188 -198 -347 -274 -420 -200 -52
51 -96 204 -107 372 l-7 96 105 154 c601 884 1005 1848 986 2350 -5 121 -19
173 -61 219 -55 59 -162 78 -240 41 -178 -84 -488 -612 -752 -1285 -164 -416
-292 -929 -311 -1244 l-7 -109 -29 -6 c-17 -3 -47 -26 -76 -58 -191 -215 -369
-318 -548 -318 -74 0 -140 31 -168 80 -28 47 -33 163 -11 270 28 136 28 146
10 183 -16 35 -16 37 4 58 47 51 38 142 -19 199 -75 75 -191 76 -374 3 -171
-68 -305 -161 -449 -313 -70 -73 -97 -96 -108 -89 -8 5 -27 9 -43 9 -23 0 -45
-17 -110 -83 -105 -106 -206 -188 -342 -277 -240 -157 -462 -235 -568 -200
-30 10 -36 16 -36 40 0 39 38 141 119 323 93 208 113 264 110 313 -3 38 1 45
52 95 30 30 67 73 83 97 79 115 15 262 -113 262 -86 0 -146 -50 -162 -134 -5
-25 -20 -70 -34 -99 -14 -30 -25 -63 -25 -75 0 -11 -11 -29 -24 -39 -13 -10
-67 -73 -120 -140 l-96 -121 -30 15 c-63 31 -106 1 -180 -127 -185 -321 -499
-600 -722 -641 -59 -11 -69 -10 -93 5 -45 29 -58 75 -45 162 32 232 232 816
551 1608 59 148 111 271 114 275 4 3 185 5 403 4 391 -2 633 -12 864 -34 93
-9 124 -9 148 1 75 31 80 149 8 186 -65 34 -557 64 -1047 64 -230 0 -292 3
-288 13 3 6 45 113 93 237 100 254 108 298 64 345 -72 78 -192 70 -232 -16 -9
-19 -39 -90 -67 -159 -28 -69 -79 -192 -115 -275 l-64 -150 -223 -7 c-123 -4
-332 -12 -464 -17 l-239 -9 -29 24 c-39 33 -75 31 -232 -11 -102 -27 -135 -40
-152 -60 -27 -30 -30 -82 -8 -124 24 -48 58 -55 233 -47 149 6 963 35 1008 36
20 0 16 -15 -63 -212 -112 -282 -295 -702 -398 -915 l-84 -172 -36 15 c-65 27
-80 16 -194 -141 -97 -135 -210 -216 -329 -235 -65 -11 -154 0 -200 24 -47 25
-99 93 -132 175 -108 266 -174 341 -303 341 -79 0 -142 -36 -233 -133 -43 -45
-74 -73 -70 -62 4 11 26 67 48 125 50 131 49 177 -5 227 -37 33 -90 49 -131
39 -46 -11 -82 -54 -121 -142 -22 -49 -60 -122 -85 -164 -44 -74 -46 -75 -70
-62 -49 25 -85 9 -182 -83 -223 -213 -477 -361 -686 -401 -93 -18 -232 -18
-299 -1 -97 26 -168 106 -180 205 l-5 47 78 13 c264 42 471 289 400 477 -21
53 -92 120 -137 129 -159 31 -386 -100 -516 -299 -26 -38 -48 -72 -50 -74 -2
-3 -13 5 -26 17 l-22 21 -80 -71 c-190 -168 -317 -237 -503 -274 -134 -26
-247 -14 -277 29 -20 29 -18 100 5 167 25 70 25 117 1 156 -25 42 -100 78
-142 69 -43 -10 -96 -59 -110 -103 -20 -66 -78 -160 -136 -223 -57 -61 -142
-119 -177 -119 -22 0 -19 22 25 180 61 216 32 342 -88 390 -72 28 -165 -28
-178 -107 -4 -21 -12 -58 -19 -83 l-12 -45 -50 0 c-29 0 -59 -6 -68 -14 -9 -8
-42 -53 -73 -100 -158 -243 -355 -440 -493 -492 -72 -27 -116 -25 -149 9 -52
51 -96 204 -107 372 l-7 96 105 154 c601 884 1005 1848 986 2350 -5 121 -19
173 -61 219 -55 59 -166 78 -242 40z m24 -429 c-49 -348 -253 -909 -506 -1390
-97 -183 -244 -442 -249 -437 -11 11 68 322 140 554 90 288 170 488 349 864
95 200 260 490 272 477 1 -2 -1 -32 -6 -68z m10770 0 c-49 -348 -253 -909
-506 -1390 -97 -183 -244 -442 -249 -437 -11 11 68 322 140 554 90 288 170
488 349 864 95 200 260 490 272 477 1 -2 -1 -32 -6 -68z m-12139 -892 c-55
-161 -194 -435 -333 -651 -27 -43 -51 -76 -53 -74 -5 5 99 242 186 424 92 191
216 410 227 399 3 -2 -10 -46 -27 -98z m10023 -1105 c-18 -16 -49 -59 -69 -98
-83 -159 -197 -304 -322 -411 -76 -65 -156 -114 -188 -114 -45 0 31 185 125
303 79 97 143 156 244 222 71 46 220 125 236 125 3 0 -9 -12 -26 -27z"/>
</g>
</svg>
